#N canvas 1026 125 450 300 10;
#X msg 186 -165 bang;
#X msg 225 -165 stop;
#X obj 200 -59 bng 15 250 50 0 empty empty empty 0 -6 0 10 -262144
-1 -1;
#X obj 200 -87 metro 500;
#X msg 228 -136 1;
#X msg 261 -136 0;
#X obj 173 -113 tgl 15 0 empty empty empty 0 -6 0 10 -262144 -1 -1
0 1;
#X text 180 -198 Ways to start/stop [metro]:;
#X obj 26 -197 bng 15 250 50 0 empty empty empty 0 -6 0 8 -262144 -1
-1;
#X text 48 -199 <--bang button;
#X obj 26 -169 tgl 15 0 empty empty empty 0 -6 0 10 -262144 -1 -1 0
1;
#X text 50 -172 <--toggle;
#X msg 27 -135 bang;
#X obj 27 -107 tgl 15 0 empty empty empty 0 -6 0 10 -262144 -1 -1 0
1;
#X msg 28 -72 bang;
#X obj 28 -34 print word;
#X obj 87 -69 bng 15 250 50 0 empty empty empty 0 -6 0 8 -262144 -1
-1;
#X obj 28 10 f;
#X obj 63 10 mod;
#X obj 98 10 sel;
#X obj 136 10 trigger;
#X connect 0 0 3 0;
#X connect 1 0 3 0;
#X connect 3 0 2 0;
#X connect 4 0 3 0;
#X connect 5 0 3 0;
#X connect 6 0 3 0;
#X connect 8 0 10 0;
#X connect 12 0 13 0;
#X connect 14 0 15 0;
#X connect 16 0 15 0;
