#N canvas 245 156 1142 640 10;
#X obj 27 105 soundfiler;
#X obj 126 523 dac~;
#X msg 27 22 list ./Yamaha-RX15-Medium-Snare.wav;
#X msg 27 64 read -resize \$1 snare;
#X obj 59 381 tabplay~ snare;
#X obj 259 104 soundfiler;
#X msg 260 20 list ./Yamaha-RX15-Tom1.wav;
#X msg 259 63 read -resize \$1 tom1;
#X obj 482 100 soundfiler;
#X msg 482 17 list ./Yamaha-RX15-Tom2.wav;
#X msg 482 59 read -resize \$1 tom2;
#X obj 57 317 r snare;
#X obj 179 311 r tom1;
#X obj 286 313 r tom2;
#X obj 179 384 tabplay~ tom1;
#X obj 286 379 tabplay~ tom2;
#N canvas 0 22 450 278 (subpatch) 0;
#X array snare 10261 float 2;
#X coords 0 1 10261 -1 200 140 1;
#X restore 28 148 graph;
#N canvas 0 22 450 278 (subpatch) 0;
#X array tom1 20921 float 2;
#X coords 0 1 20921 -1 200 140 1;
#X restore 260 147 graph;
#N canvas 0 22 450 278 (subpatch) 0;
#X array tom2 13054 float 2;
#X coords 0 1 13054 -1 200 140 1;
#X restore 485 145 graph;
#X msg 648 314 read seq.txt;
#X obj 648 380 qlist;
#X obj 59 430 *~;
#X obj 179 424 *~;
#X obj 286 418 *~;
#X obj 714 96 soundfiler;
#X msg 714 13 list ./Yamaha-RX15-Closed-Hi-Hat.wav;
#X msg 714 55 read -resize \$1 chihat;
#N canvas 0 22 450 278 (subpatch) 0;
#X array chihat 16060 float 2;
#X coords 0 1 16060 -1 200 140 1;
#X restore 712 143 graph;
#X obj 422 429 *~;
#X obj 420 309 r chihat;
#X obj 422 385 tabplay~ chihat;
#X obj 31 -22 loadbang;
#X msg 720 345 tempo 0.5 \, rewind \, bang;
#X obj 743 415 f;
#X obj 743 450 + 1;
#X floatatom 806 565 5 0 0 0 - - -;
#X obj 743 511 moses;
#X floatatom 836 473 5 0 0 0 - - -;
#X msg 806 388 0;
#X obj 539 491 r something;
#X obj 539 453 s something;
#X floatatom 539 426 5 0 0 0 - - -;
#X floatatom 539 516 5 0 0 0 - - -;
#X connect 2 0 3 0;
#X connect 3 0 0 0;
#X connect 4 0 21 0;
#X connect 6 0 7 0;
#X connect 7 0 5 0;
#X connect 9 0 10 0;
#X connect 10 0 8 0;
#X connect 11 0 4 0;
#X connect 11 0 21 1;
#X connect 12 0 14 0;
#X connect 12 0 22 1;
#X connect 13 0 15 0;
#X connect 13 0 23 1;
#X connect 14 0 22 0;
#X connect 15 0 1 1;
#X connect 15 0 23 0;
#X connect 19 0 20 0;
#X connect 20 1 33 0;
#X connect 21 0 1 0;
#X connect 21 0 1 1;
#X connect 22 0 1 0;
#X connect 23 0 1 1;
#X connect 25 0 26 0;
#X connect 26 0 24 0;
#X connect 28 0 1 0;
#X connect 29 0 28 1;
#X connect 29 0 30 0;
#X connect 30 0 28 0;
#X connect 31 0 2 0;
#X connect 31 0 6 0;
#X connect 31 0 9 0;
#X connect 31 0 25 0;
#X connect 31 0 19 0;
#X connect 32 0 20 0;
#X connect 33 0 34 0;
#X connect 34 0 33 1;
#X connect 34 0 36 0;
#X connect 36 0 35 0;
#X connect 36 0 32 0;
#X connect 36 1 38 0;
#X connect 37 0 36 1;
#X connect 38 0 33 1;
#X connect 38 0 35 0;
#X connect 39 0 42 0;
#X connect 41 0 40 0;
