#N canvas 205 117 1012 517 10;
#X floatatom 471 41 5 0 0 0 - - -;
#X msg 471 0 440;
#X obj 43 98 * 1;
#X floatatom 43 137 5 0 0 0 - - -;
#X obj 43 174 osc~;
#X obj 42 254 *~;
#X obj 493 407 dac~;
#X msg 187 342 \; pd dsp 1;
#X msg 187 397 \; pd dsp 0;
#X floatatom 97 237 5 0 0 0 - - -;
#X obj 105 91 vsl 15 128 0 1 0 0 empty empty empty 0 -9 0 10 -262144
-1 -1 12700 1;
#X obj 495 374 *~;
#X obj 707 337 hsl 128 15 0 1 0 0 empty empty empty -2 -8 0 10 -262144
-1 -1 6900 1;
#X floatatom 615 362 5 0 0 0 - - -;
#X floatatom 153 141 5 0 0 0 - - -;
#X obj 153 178 osc~;
#X obj 152 258 *~;
#X floatatom 207 241 5 0 0 0 - - -;
#X obj 215 95 vsl 15 128 0 1 0 0 empty empty empty 0 -9 0 10 -262144
-1 -1 10200 1;
#X floatatom 270 140 5 0 0 0 - - -;
#X obj 270 177 osc~;
#X obj 269 257 *~;
#X floatatom 324 240 5 0 0 0 - - -;
#X obj 332 94 vsl 15 128 0 1 0 0 empty empty empty 0 -9 0 10 -262144
-1 -1 0 1;
#X floatatom 378 143 5 0 0 0 - - -;
#X obj 378 180 osc~;
#X obj 377 260 *~;
#X floatatom 432 243 5 0 0 0 - - -;
#X obj 440 97 vsl 15 128 0 1 0 0 empty empty empty 0 -9 0 10 -262144
-1 -1 5100 1;
#X floatatom 501 146 5 0 0 0 - - -;
#X obj 501 183 osc~;
#X obj 500 263 *~;
#X floatatom 555 246 5 0 0 0 - - -;
#X obj 563 100 vsl 15 128 0 1 0 0 empty empty empty 0 -9 0 10 -262144
-1 -1 0 1;
#X floatatom 618 143 5 0 0 0 - - -;
#X obj 618 180 osc~;
#X obj 617 260 *~;
#X floatatom 672 243 5 0 0 0 - - -;
#X obj 680 97 vsl 15 128 0 1 0 0 empty empty empty 0 -9 0 10 -262144
-1 -1 0 1;
#X floatatom 742 144 5 0 0 0 - - -;
#X obj 742 181 osc~;
#X obj 741 261 *~;
#X floatatom 796 244 5 0 0 0 - - -;
#X obj 804 98 vsl 15 128 0 1 0 0 empty empty empty 0 -9 0 10 -262144
-1 -1 0 1;
#X floatatom 849 153 5 0 0 0 - - -;
#X obj 849 190 osc~;
#X obj 848 270 *~;
#X floatatom 903 253 5 0 0 0 - - -;
#X obj 911 107 vsl 15 128 0 1 0 0 empty empty empty 0 -9 0 10 -262144
-1 -1 8300 1;
#X obj 153 102 * 2;
#X obj 270 101 * 3;
#X obj 378 104 * 4;
#X obj 501 107 * 5;
#X obj 618 104 * 6;
#X obj 742 105 * 7;
#X obj 849 114 * 8;
#X connect 0 0 2 0;
#X connect 0 0 49 0;
#X connect 0 0 50 0;
#X connect 0 0 51 0;
#X connect 0 0 52 0;
#X connect 0 0 53 0;
#X connect 0 0 54 0;
#X connect 0 0 55 0;
#X connect 1 0 0 0;
#X connect 2 0 3 0;
#X connect 3 0 4 0;
#X connect 4 0 5 0;
#X connect 5 0 11 0;
#X connect 9 0 5 1;
#X connect 10 0 9 0;
#X connect 11 0 6 0;
#X connect 12 0 13 0;
#X connect 13 0 11 1;
#X connect 14 0 15 0;
#X connect 15 0 16 0;
#X connect 16 0 11 0;
#X connect 17 0 16 1;
#X connect 18 0 17 0;
#X connect 19 0 20 0;
#X connect 20 0 21 0;
#X connect 21 0 11 0;
#X connect 22 0 21 1;
#X connect 23 0 22 0;
#X connect 24 0 25 0;
#X connect 25 0 26 0;
#X connect 26 0 11 0;
#X connect 27 0 26 1;
#X connect 28 0 27 0;
#X connect 29 0 30 0;
#X connect 30 0 31 0;
#X connect 31 0 11 0;
#X connect 32 0 31 1;
#X connect 33 0 32 0;
#X connect 34 0 35 0;
#X connect 35 0 36 0;
#X connect 36 0 11 0;
#X connect 37 0 36 1;
#X connect 38 0 37 0;
#X connect 39 0 40 0;
#X connect 40 0 41 0;
#X connect 41 0 11 0;
#X connect 42 0 41 1;
#X connect 43 0 42 0;
#X connect 44 0 45 0;
#X connect 45 0 46 0;
#X connect 46 0 11 0;
#X connect 47 0 46 1;
#X connect 48 0 47 0;
#X connect 49 0 14 0;
#X connect 50 0 19 0;
#X connect 51 0 24 0;
#X connect 52 0 29 0;
#X connect 53 0 34 0;
#X connect 54 0 39 0;
#X connect 55 0 44 0;
