#N canvas 414 58 630 445 10;
#X obj 337 -78 inlet;
#X obj 144 17 * 1;
#X obj 144 87 osc~;
#X obj 144 124 *~;
#X obj 342 171 outlet~;
#X obj 144 -24 f \$1;
#X obj 195 -24 f \$2;
#X obj 243 -23 f \$3;
#X obj 291 -24 f \$4;
#X floatatom 213 52 5 0 0 0 - - -;
#X obj 213 86 osc~;
#X floatatom 144 52 5 0 0 0 - - -;
#X floatatom 267 51 5 0 0 0 - - -;
#X obj 267 85 osc~;
#X floatatom 320 51 5 0 0 0 - - -;
#X obj 320 85 osc~;
#X floatatom 368 51 5 0 0 0 - - -;
#X obj 368 85 osc~;
#X floatatom 414 50 5 0 0 0 - - -;
#X obj 414 84 osc~;
#X floatatom 461 50 5 0 0 0 - - -;
#X obj 461 84 osc~;
#X floatatom 505 50 5 0 0 0 - - -;
#X obj 505 84 osc~;
#X obj 213 19 * 2;
#X obj 267 18 * 3;
#X obj 320 18 * 4;
#X obj 368 18 * 5;
#X obj 414 17 * 6;
#X obj 461 17 * 7;
#X obj 505 17 * 8;
#X obj 213 119 *~;
#X obj 267 119 *~;
#X obj 319 120 *~;
#X obj 369 120 *~;
#X obj 415 119 *~;
#X obj 462 120 *~;
#X obj 506 121 *~;
#X obj 339 -23 f \$5;
#X obj 389 -23 f \$6;
#X obj 435 -23 f \$7;
#X obj 480 -24 f \$8;
#X obj 518 -24 f \$9;
#X floatatom 57 -149 5 0 0 0 - - -;
#X obj 109 -128 % 360;
#X obj 173 -93 / 360;
#X floatatom 83 -64 5 0 0 0 - - -;
#X msg 85 -180 90;
#X obj 109 -207 loadbang;
#X connect 0 0 5 0;
#X connect 0 0 6 0;
#X connect 0 0 7 0;
#X connect 0 0 8 0;
#X connect 0 0 38 0;
#X connect 0 0 39 0;
#X connect 0 0 40 0;
#X connect 0 0 41 0;
#X connect 0 0 42 0;
#X connect 1 0 11 0;
#X connect 2 0 3 0;
#X connect 3 0 4 0;
#X connect 5 0 1 0;
#X connect 5 0 24 0;
#X connect 5 0 25 0;
#X connect 5 0 26 0;
#X connect 5 0 27 0;
#X connect 5 0 28 0;
#X connect 5 0 29 0;
#X connect 5 0 30 0;
#X connect 6 0 3 1;
#X connect 7 0 31 1;
#X connect 8 0 32 1;
#X connect 9 0 10 0;
#X connect 10 0 31 0;
#X connect 11 0 2 0;
#X connect 12 0 13 0;
#X connect 13 0 32 0;
#X connect 14 0 15 0;
#X connect 15 0 33 0;
#X connect 16 0 17 0;
#X connect 17 0 34 0;
#X connect 18 0 19 0;
#X connect 19 0 35 0;
#X connect 20 0 21 0;
#X connect 21 0 36 0;
#X connect 22 0 23 0;
#X connect 23 0 37 0;
#X connect 24 0 9 0;
#X connect 25 0 12 0;
#X connect 26 0 14 0;
#X connect 27 0 16 0;
#X connect 28 0 18 0;
#X connect 29 0 20 0;
#X connect 30 0 22 0;
#X connect 31 0 4 0;
#X connect 32 0 4 0;
#X connect 33 0 4 0;
#X connect 34 0 4 0;
#X connect 35 0 4 0;
#X connect 36 0 4 0;
#X connect 37 0 4 0;
#X connect 38 0 33 1;
#X connect 39 0 34 1;
#X connect 40 0 35 1;
#X connect 41 0 36 1;
#X connect 42 0 37 1;
#X connect 43 0 44 0;
#X connect 44 0 45 0;
#X connect 45 0 46 0;
#X connect 45 0 2 1;
#X connect 45 0 10 1;
#X connect 45 0 13 1;
#X connect 45 0 15 1;
#X connect 45 0 17 1;
#X connect 45 0 19 1;
#X connect 45 0 21 1;
#X connect 45 0 23 1;
#X connect 47 0 43 0;
#X connect 48 0 47 0;
