#N canvas 476 71 545 514 10;
#X obj 54 34 adc~;
#X obj 124 36 hsl 128 15 0 1000 0 0 empty empty empty -2 -8 0 10 -262144
-1 -1 1500 1;
#X obj 23 393 dac~;
#X floatatom 161 61 5 0 0 0 - - -;
#X obj 127 91 delread~ delay1;
#X obj 159 194 delwrite~ delay1 1000;
#X obj 293 112 hsl 128 15 -1 1 0 0 empty empty empty -2 -8 0 10 -262144
-1 -1 6400 1;
#X obj 158 151 *~ 0.8;
#X obj 274 220 loadbang;
#X obj 274 250 f 0;
#X obj 120 335 *~;
#X obj 182 345 *~;
#X obj 206 276 hsl 128 15 -1 1 0 0 empty empty empty -2 -8 0 10 -262144
-1 -1 0 1;
#X obj 32 239 hsl 128 15 -1 1 0 0 empty empty empty -2 -8 0 10 -262144
-1 -1 0 1;
#X obj 8 303 *~;
#X obj 70 313 *~;
#X text 225 308 1) What`s the second argument for delwrite~ ? Change
it to larger value then adjust delread~ and listen to the sound 2)
add another delread~ object that reads the same delay object \, adjust
the two delread~ objects and listen to the sound;
#X connect 0 0 5 0;
#X connect 0 0 15 0;
#X connect 0 0 14 0;
#X connect 1 0 3 0;
#X connect 1 0 4 0;
#X connect 4 0 7 0;
#X connect 4 0 10 0;
#X connect 4 0 11 0;
#X connect 6 0 7 1;
#X connect 7 0 5 0;
#X connect 8 0 9 0;
#X connect 9 0 12 0;
#X connect 10 0 2 0;
#X connect 11 0 2 1;
#X connect 12 0 11 1;
#X connect 12 0 10 1;
#X connect 13 0 15 1;
#X connect 13 0 14 1;
#X connect 14 0 2 0;
#X connect 15 0 2 1;
